<svg width="67" height="66" viewBox="0 0 67 66" fill="none" xmlns="http://www.w3.org/2000/svg">
<rect x="0.5" width="66" height="66" rx="33" fill="#3DAE2B"/>
<path d="M29.9983 34.8883C29.3017 34.8883 28.66 34.8883 28 34.8883C27.45 34.8883 26.9 34.8883 26.35 34.8883C25.7817 34.8883 25.58 34.705 25.58 34.1367C25.58 32.6517 25.58 31.1483 25.58 29.6633C25.58 29.095 25.7817 28.9117 26.35 28.9117C27.4133 28.9117 28.4767 28.9117 29.54 28.9117C29.6683 28.9117 29.7967 28.9117 29.98 28.9117C29.98 28.7467 29.98 28.6183 29.98 28.4717C29.9983 27.115 29.9617 25.74 30.0717 24.3833C30.365 20.9367 33.005 18.48 36.4517 18.37C37.8633 18.315 39.275 18.3517 40.6867 18.37C41.1817 18.37 41.3833 18.5717 41.3833 19.0667C41.3833 20.46 41.3833 21.8533 41.3833 23.265C41.3833 23.7967 41.2 23.9983 40.65 23.9983C39.6783 24.0167 38.7067 24.0167 37.7533 24.035C36.6717 24.035 36.2133 24.475 36.195 25.5383C36.1767 26.62 36.195 27.7017 36.195 28.8383C36.36 28.8383 36.4883 28.8383 36.6167 28.8383C37.845 28.8383 39.0733 28.8383 40.3017 28.8383C41.0717 28.8383 41.255 29.0217 41.255 29.7733C41.255 31.2033 41.255 32.615 41.255 34.045C41.255 34.6867 41.09 34.8517 40.4483 34.8517C39.055 34.8517 37.6617 34.8517 36.195 34.8517C36.195 35.0167 36.195 35.1633 36.195 35.31C36.195 39.05 36.195 42.79 36.195 46.53C36.195 47.5567 36.085 47.6667 35.04 47.6667C33.665 47.6667 32.29 47.6667 30.915 47.6667C30.1817 47.6667 29.9983 47.4833 29.9983 46.7683C29.9983 42.9733 29.9983 39.1783 29.9983 35.365C29.9983 35.2183 29.9983 35.09 29.9983 34.8883Z" fill="#F5F5F5"/>
</svg>
