<svg width="48" height="32" viewBox="0 0 48 32" fill="none" xmlns="http://www.w3.org/2000/svg">
<path d="M32.7374 10.7693C31.8787 9.90715 30.9919 9.0721 30.1681 8.17765C28.5837 6.46173 29.2613 3.73256 31.4204 3.10288C32.4965 2.78889 33.5013 3.00784 34.3018 3.81742C36.9574 6.50247 39.6063 9.19261 42.2221 11.9184C43.3746 13.12 43.358 14.9446 42.1988 16.1479C39.6063 18.8415 36.9906 21.5129 34.3566 24.164C33.1874 25.3402 31.3523 25.3249 30.2146 24.2082C29.0654 23.0795 29.0023 21.1769 30.1183 19.9243C30.8291 19.1266 31.5947 18.3798 32.3521 17.6279C32.4932 17.4871 32.7141 17.4277 32.8968 17.3309C32.8353 17.2528 32.7739 17.1765 32.7124 17.0984C32.6062 17.0899 32.4982 17.0746 32.3919 17.0746C30.7328 17.0746 29.072 17.056 27.4129 17.078C24.8802 17.112 23.1763 18.8533 23.1065 21.445C22.9587 27.0493 18.7071 31.4113 13.1917 31.5589C10.948 31.6183 8.70258 31.5912 6.45887 31.5674C4.75325 31.5487 3.46947 30.2096 3.47113 28.5209C3.47445 26.8066 4.78979 25.4845 6.51866 25.4777C8.5747 25.4692 10.6307 25.4777 12.6868 25.476C15.339 25.4726 17.0148 23.8704 17.141 21.1667C17.3353 17.0203 19.1904 13.9534 22.7827 12.0134C24.2275 11.2327 25.7953 10.934 27.4229 10.934C28.969 10.934 30.5169 10.934 32.0631 10.934C32.264 10.934 32.4666 10.934 32.6676 10.934C32.6909 10.8797 32.7158 10.8237 32.739 10.7693H32.7374Z" fill="#29ABE2"/>
</svg>
