<svg width="30" height="41" viewBox="0 0 30 41" fill="none" xmlns="http://www.w3.org/2000/svg">
<path d="M21.7306 30.2374C22.5928 29.3787 23.4278 28.4919 24.3223 27.6681C26.0382 26.0837 28.7674 26.7613 29.3971 28.9204C29.711 29.9965 29.4921 31.0013 28.6825 31.8018C25.9975 34.4574 23.3073 37.1063 20.5816 39.7221C19.3799 40.8746 17.5554 40.858 16.352 39.6988C13.6585 37.1063 10.987 34.4906 8.33591 31.8566C7.15972 30.6874 7.17499 28.8523 8.29178 27.7146C9.42045 26.5654 11.3231 26.5023 12.5756 27.6183C13.3733 28.3291 14.1201 29.0947 14.872 29.8521C15.0129 29.9932 15.0723 30.2141 15.169 30.3968C15.2471 30.3353 15.3235 30.2739 15.4016 30.2124C15.41 30.1062 15.4253 29.9982 15.4253 29.8919C15.4253 28.2328 15.444 26.572 15.4219 24.9129C15.388 22.3802 13.6466 20.6763 11.0549 20.6065C5.45059 20.4587 1.08866 16.2071 0.941005 10.6917C0.881601 8.44795 0.908756 6.20258 0.932518 3.95887C0.951189 2.25325 2.29032 0.96947 3.97908 0.971131C5.6933 0.974452 7.01546 2.28979 7.02224 4.01866C7.03073 6.0747 7.02224 8.13074 7.02394 10.1868C7.02733 12.839 8.62954 14.5148 11.3332 14.641C15.4796 14.8353 18.5466 16.6904 20.4865 20.2827C21.2672 21.7275 21.566 23.2953 21.566 24.9229C21.566 26.469 21.566 28.0169 21.566 29.5631C21.566 29.764 21.566 29.9666 21.566 30.1676C21.6203 30.1909 21.6763 30.2158 21.7306 30.239L21.7306 30.2374Z" fill="white"/>
</svg>
