<svg width="331" height="251" viewBox="0 0 331 251" fill="none" xmlns="http://www.w3.org/2000/svg">
<path d="M402.132 34.4827C399.421 48.036 395.427 61.2455 390.235 74.0177C391.056 72.0292 391.876 70.0408 392.693 68.0524C385.509 85.4368 376.186 101.762 364.914 116.702C366.186 115.019 367.458 113.333 368.73 111.649C359.071 124.301 348.091 136.237 335.679 146.107C337.325 144.807 338.971 143.506 340.615 142.202C335.118 146.457 329.194 150.018 322.85 152.777C324.793 151.938 326.734 151.099 328.677 150.26C324.097 152.169 319.409 153.605 314.509 154.347C316.67 154.05 318.834 153.753 320.994 153.456C317.727 153.874 314.498 153.957 311.225 153.572C313.386 153.869 315.55 154.166 317.711 154.463C315.214 154.089 312.847 153.453 310.51 152.48C312.453 153.319 314.394 154.157 316.337 154.996C314.608 154.196 313.017 153.255 311.473 152.125C313.119 153.426 314.765 154.727 316.409 156.03C314.57 154.567 312.99 152.953 311.537 151.088C312.808 152.771 314.08 154.457 315.352 156.14C312.814 152.634 311.036 148.723 309.387 144.719C310.207 146.707 311.027 148.695 311.845 150.684C306.224 136.864 300.986 123.701 287.716 115.69C270.782 105.47 250.338 110.962 235.07 121.603C213.369 136.729 193.542 154.504 171.719 169.479C159.201 178.071 146.134 185.758 132.245 191.797C134.188 190.959 136.129 190.12 138.072 189.281C126.17 194.347 113.838 198.134 101.064 200.029C103.224 199.732 105.388 199.435 107.549 199.138C97.6696 200.488 87.7355 200.673 77.8428 199.372C80.0035 199.669 82.1671 199.966 84.3278 200.263C77.4436 199.262 70.7466 197.526 64.3138 194.801C66.2572 195.64 68.1978 196.478 70.1411 197.317C65.6819 195.329 61.509 192.914 57.6141 189.927C59.2601 191.228 60.9062 192.529 62.5494 193.833C59.1665 191.11 56.1745 188.063 53.5265 184.592C54.7982 186.275 56.0699 187.961 57.3416 189.644C54.7294 186.058 52.6099 182.232 50.9005 178.115C51.7208 180.103 52.5411 182.092 53.3586 184.08C51.4511 179.215 50.1986 174.204 49.4527 169.02C49.7445 171.231 50.0335 173.445 50.3253 175.656C49.3426 167.969 49.5023 160.266 50.4574 152.584C50.1656 154.796 49.8766 157.009 49.5848 159.221C51.0244 148.635 53.9284 138.404 57.9499 128.553C57.1296 130.541 56.3094 132.529 55.4919 134.518C66.4857 108.113 82.5744 83.9516 90.2844 56.1217C98.4348 26.6967 95.0629 -3.58363 89.844 -33.1709C87.1823 -48.2589 84.0306 -63.2587 81.9937 -78.4539C82.2855 -76.2427 82.5745 -74.0287 82.8662 -71.8175C80.9945 -86.2949 80.2348 -100.896 82.1368 -115.415C81.845 -113.203 81.556 -110.989 81.2643 -108.778C82.6598 -118.558 85.6794 -127.865 87.909 -137.45C91.1433 -151.361 91.413 -164.262 89.1229 -178.288C87.4933 -188.252 84.1683 -197.804 81.4652 -207.491C78.6438 -217.598 76.5932 -227.895 75.2279 -238.31C75.5196 -236.099 75.8087 -233.885 76.1004 -231.674C73.7415 -250.623 73.7883 -269.743 76.2463 -288.681C75.9545 -286.47 75.6655 -284.256 75.3738 -282.045C78.2942 -303.417 84.7023 -323.714 92.3076 -343.774C99.7313 -363.356 107.895 -382.729 113.136 -403.086C118.328 -423.248 120.72 -444.527 118.537 -465.316C116.222 -487.365 110.654 -507.871 101.278 -527.896C91.914 -547.893 78.2255 -566.397 61.8917 -580.968C56.9673 -585.36 51.3465 -588.28 44.644 -588.28C38.6627 -588.28 31.5142 -585.56 27.3964 -580.968C18.9625 -571.564 17.1238 -554.821 27.3964 -545.657C34.5641 -539.262 41.0519 -532.186 46.8763 -524.494C45.6047 -526.177 44.333 -527.863 43.0613 -529.546C50.7492 -519.216 57.0967 -507.987 62.0788 -496.048C61.2585 -498.036 60.4383 -500.025 59.6208 -502.013C64.8204 -489.279 68.3822 -475.971 70.2017 -462.297C69.9099 -464.508 69.6209 -466.722 69.3291 -468.933C70.9394 -456.056 70.9696 -443.086 69.2906 -430.215C69.5823 -432.426 69.8714 -434.64 70.1631 -436.851C65.3599 -402.374 49.5326 -371.213 38.6159 -338.593C32.3923 -319.99 28.5524 -300.972 26.6146 -281.407C24.6465 -261.541 25.7641 -241.852 28.5772 -222.136C30.0251 -211.99 32.1885 -201.982 35.0127 -192.147C37.79 -182.471 40.9418 -172.912 42.4061 -162.903C42.1144 -165.115 41.8253 -167.329 41.5336 -169.54C42.263 -163.822 42.3263 -158.206 41.5996 -152.485C41.8914 -154.697 42.1804 -156.911 42.4722 -159.122C40.6115 -146.559 36.0421 -134.642 34.2282 -122.057C32.2216 -108.137 31.7426 -94.4604 33.0969 -80.4533C35.632 -54.2186 42.0125 -28.6715 45.533 -2.59905C45.2413 -4.81026 44.9522 -7.02424 44.6605 -9.23542C46.5487 5.24743 47.336 19.8486 45.4725 34.3782C45.7642 32.167 46.0533 29.953 46.3451 27.7418C44.7788 38.9381 41.5115 49.6284 37.234 60.0353C38.0543 58.0469 38.8745 56.0585 39.6921 54.07C28.5799 80.5908 12.0149 104.958 4.97932 133.181C1.71751 146.264 -0.176262 160.472 1.33765 173.965C2.1937 181.6 3.22318 189.121 5.91794 196.324C9.34488 205.483 13.3994 212.694 19.3725 220.34C38.7066 245.081 74.0745 252.724 103.483 249.578C135.358 246.167 164.899 233.464 191.681 215.739C205.182 206.803 217.99 196.83 230.751 186.836C237.049 181.905 243.339 176.96 249.705 172.122C256.119 167.249 262.497 162.155 269.871 158.885C267.927 159.724 265.987 160.563 264.044 161.402C266.386 160.458 268.715 159.754 271.206 159.355C269.045 159.652 266.881 159.95 264.721 160.247C266.336 160.082 267.872 160.065 269.491 160.216C267.33 159.919 265.167 159.622 263.006 159.325C264.644 159.6 266.13 160.029 267.669 160.667C265.725 159.828 263.785 158.99 261.842 158.151C262.965 158.709 263.991 159.331 265.01 160.071C263.364 158.77 261.718 157.469 260.074 156.165C261.5 157.326 262.717 158.61 263.848 160.071C262.576 158.387 261.305 156.701 260.033 155.018C262.285 158.167 263.884 161.66 265.37 165.238C264.55 163.25 263.73 161.261 262.912 159.273C267.074 169.452 270.529 178.717 277.641 187.152C283.906 194.578 293.447 200.395 302.882 202.295C322.475 206.245 342.401 200.455 359.087 189.696C373.72 180.263 386.698 167.251 397.824 153.778C409.726 139.364 420.34 123.792 428.653 106.925C437.885 88.2008 445.064 68.3082 449.176 47.7472C450.5 41.1356 450.126 34.4717 446.718 28.5064C443.757 23.3277 437.957 18.3882 432.141 17.0323C419.966 14.1941 404.871 20.7892 402.135 34.4717L402.132 34.4827Z" fill="#29ABE2"/>
</svg>
