<svg width="67" height="66" viewBox="0 0 67 66" fill="none" xmlns="http://www.w3.org/2000/svg">
<rect x="0.5" width="66" height="66" rx="33" fill="#3DAE2B"/>
<path d="M37.9367 47.685H29.1C28.9167 47.685 28.7333 47.6484 28.5683 47.6484C27.395 47.6117 26.24 47.575 25.085 47.3C22.6467 46.7134 20.85 45.3384 19.7683 43.065C19.1083 41.6534 18.9067 40.1317 18.8883 38.5917C18.8517 35.42 18.8333 32.2667 18.8333 29.095C18.8333 27.5734 18.8333 26.0517 19.2183 24.5667C19.86 21.9634 21.3817 20.1117 23.875 19.1034C25.2133 18.5534 26.625 18.4067 28.055 18.3884C31.0433 18.3517 34.0317 18.3334 37.0017 18.3334C38.56 18.3334 40.1367 18.3334 41.695 18.6634C44.5367 19.2867 46.535 20.9184 47.5433 23.6867C48.02 25.025 48.1483 26.4184 48.1483 27.8117C48.1483 31.2034 48.1667 34.5767 48.1483 37.9684C48.1483 38.9217 48.0567 39.8934 47.91 40.8467C47.5983 42.79 46.7367 44.4584 45.1967 45.7234C43.6933 46.9517 41.9333 47.465 40.0267 47.5934C39.33 47.6484 38.6333 47.6667 37.9367 47.7034V47.685ZM33.5183 45.0817V45.045C34.2883 45.045 35.0767 45.0634 35.8467 45.045C37.515 44.99 39.2017 45.0084 40.8517 44.7884C43.1067 44.495 44.6283 43.1934 45.1967 40.9384C45.4167 40.04 45.49 39.0867 45.5083 38.1517C45.5633 35.42 45.5817 32.7067 45.5633 29.975C45.5633 28.545 45.5083 27.115 45.3433 25.7034C45.0683 23.3384 43.5833 21.7434 41.255 21.2667C40.2467 21.065 39.1833 21.01 38.1567 20.9917C35.4067 20.955 32.6383 20.955 29.8883 20.9917C28.605 20.9917 27.3217 21.0467 26.0567 21.23C23.82 21.56 22.28 23.0084 21.84 25.2267C21.6383 26.18 21.5833 27.17 21.565 28.16C21.51 30.525 21.4917 32.9084 21.5283 35.2734C21.5283 36.9234 21.5833 38.5734 21.7483 40.205C21.9133 41.8917 22.72 43.2484 24.2233 44.1284C25.14 44.66 26.1667 44.88 27.2117 44.9167C29.32 44.99 31.4467 45.0267 33.555 45.0817H33.5183Z" fill="#F5F5F5"/>
<path d="M25.965 33C25.965 28.8383 29.3567 25.4467 33.5183 25.4467C37.6983 25.4467 41.035 28.8017 41.0533 32.9817C41.0533 37.1433 37.68 40.535 33.5183 40.5533C29.3567 40.5533 25.965 37.1617 25.965 33ZM33.5183 37.895C36.2317 37.895 38.4133 35.7133 38.4133 33.0183C38.4133 30.305 36.25 28.1233 33.5367 28.1233C30.8233 28.1233 28.6233 30.305 28.6233 33.0183C28.6233 35.7317 30.805 37.895 33.5183 37.895Z" fill="#F5F5F5"/>
<path d="M41.4017 23.3934C42.3917 23.4117 43.1433 24.2184 43.125 25.2084C43.1067 26.1801 42.3 26.9317 41.3283 26.9134C40.3567 26.9134 39.5867 26.0884 39.605 25.0984C39.6233 24.1451 40.43 23.3751 41.4017 23.3934Z" fill="#F5F5F5"/>
</svg>
