<svg width="67" height="68" viewBox="0 0 67 68" fill="none" xmlns="http://www.w3.org/2000/svg">
<path d="M36.86 66.733C37.6767 66.623 38.52 66.513 39.34 66.383C41.8533 65.9864 44.4033 65.223 46.9233 64.113C47.5033 63.8564 47.9567 63.9197 48.44 64.3164C50.09 65.6764 51.9933 66.503 54.1 66.7764C54.25 66.7964 54.3733 66.8397 54.4767 66.8764L54.4933 66.883H56.71C56.9133 66.8364 57.12 66.7964 57.3267 66.753H57.35C57.8267 66.653 58.3167 66.553 58.7633 66.4064C63.2433 64.9364 65.9367 61.8264 66.7733 57.1664C66.8 57.023 66.8367 56.8897 66.8667 56.773L66.89 56.693V54.4497C66.86 54.3097 66.8333 54.1697 66.8067 54.0297L66.8 53.993C66.7333 53.6597 66.6667 53.3164 66.5867 52.9864C66.18 51.2997 65.4133 49.743 64.3 48.3597C64.05 48.0497 63.9033 47.473 64.0867 47.0497C65.6267 43.503 66.5367 39.8264 66.79 36.1264C66.8 35.9664 66.85 35.8264 66.8833 35.7264L66.89 35.703V31.6097C66.8433 31.283 66.8 30.953 66.7567 30.6264L66.7433 30.5164C66.6367 29.6997 66.5233 28.8564 66.39 28.023C65.9933 25.513 65.25 23.033 64.1233 20.4364L64.1133 20.4164C63.98 20.1097 63.7567 19.593 64.24 19.0197C65.6567 17.343 66.5133 15.3864 66.7867 13.203C66.8033 13.0597 66.85 12.943 66.8867 12.8564V10.6497C66.85 10.4797 66.8167 10.3097 66.78 10.1364C66.7 9.74304 66.6167 9.33304 66.5167 8.93971C65.3867 4.51637 61.7233 1.23637 57.1833 0.586374C57.03 0.563041 56.8967 0.509708 56.8033 0.473041H56.8H54.4567C54.3267 0.499708 54.2 0.523041 54.07 0.549708L54.0233 0.559708C53.68 0.626374 53.33 0.693041 52.9967 0.776374C51.3067 1.18304 49.75 1.95637 48.37 3.06637C48.06 3.31637 47.4867 3.45971 47.06 3.27637C43.5133 1.73971 39.8367 0.829708 36.1333 0.573041C35.9733 0.563041 35.8367 0.516374 35.7367 0.483041C35.73 0.483041 35.72 0.476374 35.7133 0.476374H31.6167C31.2567 0.526374 30.9 0.573041 30.54 0.619708C29.7267 0.726374 28.9 0.833041 28.0967 0.963041C25.54 1.37304 23.0167 2.12304 20.3767 3.25971C20.0133 3.41637 19.42 3.40304 19.0567 3.10971C17.31 1.69637 15.3433 0.843041 13.21 0.576375C13.07 0.559708 12.9533 0.513041 12.8667 0.476374H10.5433C10.2467 0.556374 9.94667 0.626374 9.65334 0.696374L9.54667 0.346375L9.63 0.699708C8.96667 0.856374 8.27667 1.01971 7.66667 1.27637C3.66667 2.95304 1.28667 5.97304 0.590003 10.2564C0.566669 10.3897 0.520003 10.4997 0.480003 10.583V12.9064C0.510003 13.0497 0.536669 13.193 0.566669 13.3364C0.633336 13.6764 0.703335 14.0297 0.783335 14.363C1.19 16.0497 1.96 17.6064 3.07334 18.9897C3.32334 19.2997 3.47334 19.8764 3.28667 20.2997C1.76 23.8097 0.850003 27.463 0.583336 31.1597C0.570003 31.323 0.530002 31.4664 0.496669 31.5797C0.490002 31.5997 0.486669 31.6197 0.480003 31.6364V35.7464C0.530003 36.113 0.580002 36.4797 0.626669 36.8464C0.733336 37.6597 0.846669 38.503 0.976669 39.3364C1.37667 41.8497 2.11667 44.333 3.24334 46.923C3.38 47.2364 3.61 47.763 3.12 48.3397C1.72 49.9897 0.866669 51.9264 0.580002 54.093C0.560002 54.2397 0.516669 54.3664 0.483336 54.463L0.476669 54.483V56.833L0.566669 57.2397C0.640003 57.5697 0.710002 57.893 0.790002 58.2164C1.92334 62.8164 5.56667 66.093 10.2967 66.773C10.44 66.793 10.5567 66.8364 10.66 66.873L10.6833 66.8797H12.9033C13.1 66.8364 13.2967 66.7964 13.4933 66.7564C13.95 66.663 14.4167 66.5664 14.8567 66.443C16.3233 66.0364 17.7167 65.3097 18.9967 64.2864C19.3067 64.0364 19.8833 63.8864 20.31 64.073C23.8633 65.6164 27.54 66.5264 31.2333 66.7797C31.3933 66.7897 31.5333 66.8397 31.6333 66.873L31.6567 66.8797H35.75C36.11 66.8297 36.47 66.783 36.83 66.733L36.9 67.0897L36.8533 66.7297L36.86 66.733ZM61.5533 61.5997C59.95 63.1864 57.84 64.0564 55.6067 64.0564C54.0033 64.0564 52.45 63.6064 51.2367 62.793L50.51 62.3064L51.2467 61.8364C55.5533 59.0897 59.1167 55.523 61.8467 51.233L62.3033 50.513L62.7967 51.2064C64.9033 54.1764 64.3467 58.8364 61.5567 61.5964L61.5533 61.5997ZM64.0667 33.103C64.2133 40.763 61.5667 48.0164 56.6133 53.523L56.21 53.9697L47.08 44.8497L47.3533 44.4564C52.33 37.3164 52.3167 30.0364 47.3067 22.8197L47.0333 22.4264L56.1133 13.3397L56.5167 13.7697C61.1733 18.7364 63.9267 25.7797 64.0667 33.0964V33.103ZM33.71 48.233H33.69C29.8733 48.233 26.2367 46.6997 23.4533 43.9164C20.6633 41.1297 19.1267 37.4864 19.13 33.6664C19.1333 25.793 25.79 19.133 33.66 19.1197C37.5 19.1197 41.1333 20.653 43.92 23.433C46.71 26.2197 48.2433 29.8597 48.24 33.683C48.2367 41.5564 41.58 48.2197 33.7067 48.2297L33.71 48.233ZM51.24 4.58304C53.69 2.81637 58.08 2.63971 61.1767 5.40637C64.2833 8.17971 64.9867 12.793 62.82 16.1397L62.3367 16.8864L61.86 16.1364C59.0733 11.7664 55.61 8.29638 51.27 5.52971L50.56 5.07638L51.2433 4.58304H51.24ZM33.7167 3.29971C33.8367 3.29971 33.9533 3.29971 34.0733 3.29971C41.4867 3.38637 48.4067 6.04971 53.56 10.7997L53.9967 11.203L44.8267 20.363L44.4267 20.043C38.2267 15.0797 29.22 15.0497 23.0133 19.9664L22.62 20.2764L13.2833 11.233L13.74 10.823C19.1733 5.96304 26.2533 3.29637 33.71 3.29637L33.7167 3.29971ZM5.76 5.80637C8.51667 3.02304 13.1767 2.46637 16.1467 4.56304L16.84 5.05304L16.1233 5.50971C11.8 8.27304 8.23334 11.843 5.52334 16.1164L5.05667 16.8564L4.56667 16.1297C2.79334 13.4964 2.60667 8.98304 5.75667 5.80637H5.76ZM3.29 34.3997C3.10334 26.673 5.76334 19.353 10.7767 13.7964L11.1733 13.3564L20.4967 22.393L20.1767 22.7997C15.1067 29.1997 15.0567 38.0797 20.0467 44.3997L20.3633 44.7997L11.2167 53.9564L10.8133 53.5297C6.21 48.6697 3.47 41.6997 3.29334 34.4064L3.29 34.3997ZM16.1467 62.793C14.9633 63.623 13.4933 64.0597 11.9 64.0597C9.57667 64.0597 7.34 63.143 5.76 61.5464C2.60667 58.3597 2.79334 53.8497 4.57 51.2297L5.05667 50.5097L5.52334 51.243C8.26 55.5364 11.8267 59.103 16.1267 61.843L16.8467 62.303L16.1467 62.793ZM34.3933 64.053C34.16 64.0597 33.9267 64.0597 33.6933 64.0597C26.2567 64.0597 19.1767 61.3897 13.76 56.5397L13.31 56.1364L22.43 47.013L22.8233 47.2864C30.0067 52.303 37.2933 52.3164 44.4833 47.333L44.8767 47.0597L53.9667 56.1397L53.5367 56.543C48.65 61.1497 41.6733 63.8864 34.3933 64.0497V64.053Z" fill="#BF0480"/>
</svg>
